<svg width="14" height="14" viewBox="0 0 14 14" fill="none" xmlns="http://www.w3.org/2000/svg">
<g clip-path="url(#clip0_1_1369)">
<g clip-path="url(#clip1_1_1369)">
<path d="M11.6196 1.75H10.2267V0.850391C10.2267 0.39375 9.80888 0 9.29817 0C8.78745 0 8.36959 0.39375 8.36959 0.850391V1.75H4.65531V0.850391C4.65531 0.39375 4.23745 0 3.72674 0C3.21602 0 2.79817 0.39375 2.79817 0.850391V1.75H1.40531C0.636045 1.75 0.0124512 2.33762 0.0124512 3.0625V4.375H13.0125V3.0625C13.0125 2.33762 12.3886 1.75 11.6196 1.75ZM0.0124512 12.6875C0.0124512 13.4121 0.636335 14 1.40531 14H11.6196C12.3886 14 13.0125 13.4121 13.0125 12.6875V5.25H0.0124512V12.6875Z" fill="#878D96"/>
</g>
</g>
<defs>
<clipPath id="clip0_1_1369">
<rect width="13" height="14" fill="white" transform="translate(0.0124512)"/>
</clipPath>
<clipPath id="clip1_1_1369">
<rect width="13" height="14" fill="white" transform="translate(0.0124512)"/>
</clipPath>
</defs>
</svg>
