<svg width="30" height="19" viewBox="0 0 30 19" fill="none" xmlns="http://www.w3.org/2000/svg">
<path d="M15.6844 7.19063L14.2781 8.47922C12.375 10.2234 10.2094 9.0375 9.51094 8.27813C8.25 6.9 8.34844 4.76719 9.71719 3.51094L13.5516 0H13.2422C10.5328 0 7.92656 1.07578 6.00937 2.99063L1.5 3.00469C0.675 3.00469 0 3.67922 0 4.50375V11.9944C0 12.8189 0.675 13.4963 1.45781 13.4963L6.81562 13.4934L11.0578 17.3287C12.3469 18.3773 14.2336 18.1776 15.2766 16.8949L16.1259 17.6097C16.8703 18.1769 17.9719 18.1019 18.5812 17.3581L20.0522 15.5487L20.3041 15.7595C20.9486 16.2752 21.8922 16.1815 22.4135 15.537L22.8623 14.9825C23.3817 14.3403 23.2832 13.4004 22.642 12.8796L15.6844 7.19063ZM28.5 3.00469L24 2.9988C22.0791 1.0788 19.4737 0.00442028 16.7578 0.00442028L16.3547 0C15.9797 0 15.6225 0.149859 15.3412 0.401625L10.7344 4.60781C10.7297 4.61719 10.725 4.62656 10.725 4.62656C9.9375 5.36719 9.95625 6.52969 10.6219 7.25156C11.073 7.74375 12.2625 8.265 13.253 7.38047C13.253 7.37461 13.2647 7.37461 13.2705 7.36875L17.0205 3.94219C17.3252 3.66699 17.7996 3.68456 18.0809 3.98906C18.3621 4.29356 18.3387 4.76813 18.034 5.04938L16.8096 6.16828L23.6346 11.7042C24.2027 12.1726 24.5487 12.8053 24.6715 13.4845L28.5 13.4859C29.325 13.4859 30 12.8119 30 11.9869V4.50469C30 3.675 29.3297 3.00469 28.5 3.00469Z" fill="#317ECE"/>
</svg>
