<svg width="14" height="18" viewBox="0 0 14 18" fill="none" xmlns="http://www.w3.org/2000/svg">
<path d="M13.248 4.75H8.91471V0.5L13.248 4.75ZM8.91471 5.8125H13.248V15.9062C13.248 16.7865 12.5205 17.5 11.623 17.5H1.87305C0.975573 17.5 0.248047 16.7861 0.248047 15.9062V2.09375C0.248047 1.21354 0.975573 0.5 1.87305 0.5H7.83138L7.83151 4.75C7.83138 5.3377 8.3155 5.8125 8.91471 5.8125ZM8.88086 10.2949L7.56055 11.5932V8.20312C7.56055 7.76318 7.19661 7.40625 6.74805 7.40625C6.29948 7.40625 5.93555 7.76484 5.93555 8.20312V11.5932L4.58477 10.2949C4.45612 10.1389 4.24961 10.0625 4.03971 10.0625C3.82982 10.0625 3.62398 10.1389 3.46521 10.2949C3.14783 10.6062 3.14783 11.1104 3.46521 11.4218L6.17354 14.0781C6.49092 14.3894 7.005 14.3894 7.32255 14.0781L10.0309 11.4218C10.3483 11.1106 10.3483 10.6064 10.0309 10.2949C9.7135 9.98348 9.19909 9.98613 8.88086 10.2949Z" fill="#317ECE"/>
</svg>
