<svg width="16" height="20" viewBox="0 0 16 20" fill="none" xmlns="http://www.w3.org/2000/svg">
<g clip-path="url(#clip0_1_4293)">
<path d="M10.0776 0V5H15.1165L10.0776 0ZM8.81793 5V0H1.88956C0.845971 0 0 0.839453 0 1.875V18.125C0 19.1602 0.845971 20 1.88956 20H13.2269C14.2705 20 15.1165 19.1605 15.1165 18.125V6.25H10.1131C9.38087 6.25 8.81793 5.69141 8.81793 5ZM10.7075 16.25H4.40897C4.06255 16.25 3.77911 15.9688 3.77911 15.625C3.77911 15.2812 4.06255 15 4.40897 15H10.7075C11.0553 15 11.3373 15.2798 11.3373 15.625C11.3373 15.9688 11.0539 16.25 10.7075 16.25ZM10.7075 13.75H4.40897C4.06255 13.75 3.77911 13.4688 3.77911 13.125C3.77911 12.7812 4.06255 12.5 4.40897 12.5H10.7075C11.0553 12.5 11.3373 12.7798 11.3373 13.125C11.3373 13.4688 11.0539 13.75 10.7075 13.75ZM11.3373 10.625C11.3373 10.9688 11.0539 11.25 10.7075 11.25H4.40897C4.06255 11.25 3.77911 10.9688 3.77911 10.625C3.77911 10.2812 4.06255 10 4.40897 10H10.7075C11.0539 10 11.3373 10.2812 11.3373 10.625Z" fill="#C1C7CD"/>
</g>
<defs>
<clipPath id="clip0_1_4293">
<rect width="15.1165" height="20" fill="white"/>
</clipPath>
</defs>
</svg>
