<svg width="20" height="16" viewBox="0 0 20 16" fill="none" xmlns="http://www.w3.org/2000/svg">
<path d="M19.2 2.79024H10.225L7.2925 0.0536585C7.25519 0.0195799 7.20611 0.000427553 7.155 0H0.8C0.3575 0 0 0.34878 0 0.780488V15.2195C0 15.6512 0.3575 16 0.8 16H19.2C19.6425 16 20 15.6512 20 15.2195V3.57073C20 3.13902 19.6425 2.79024 19.2 2.79024ZM13 9.58537C13 9.67805 12.915 9.7561 12.8125 9.7561H10.7V11.8268C10.7 11.922 10.62 12 10.525 12H9.475C9.38 12 9.3 11.922 9.3 11.8268V9.7561H7.1875C7.085 9.7561 7 9.67805 7 9.58537V8.56098C7 8.46829 7.085 8.39024 7.1875 8.39024H9.3V6.31951C9.3 6.22439 9.38 6.14634 9.475 6.14634H10.525C10.62 6.14634 10.7 6.22439 10.7 6.31951V8.39024H12.8125C12.915 8.39024 13 8.46829 13 8.56098V9.58537Z" fill="#317ECE"/>
</svg>
