<svg width="18" height="24" viewBox="0 0 18 24" fill="none" xmlns="http://www.w3.org/2000/svg">
<path d="M15.75 3H13.2244C12.6047 1.25625 10.9547 0 9 0C7.04531 0 5.39531 1.25625 4.77656 3H2.25C1.00781 3 0 4.00688 0 5.25V21.75C0 22.9922 1.00781 24 2.25 24H15.75C16.9922 24 18 22.9931 18 21.75V5.25C18 4.00688 16.9922 3 15.75 3ZM9 3C9.82828 3 10.5 3.67172 10.5 4.5C10.5 5.32828 9.82828 6 9 6C8.17172 6 7.5 5.32969 7.5 4.5C7.5 3.67031 8.17031 3 9 3ZM13.2609 12.3187L9.13594 17.5687C8.94623 17.8104 8.66625 17.9643 8.36109 17.9935C8.325 17.9578 8.2875 18 8.25 18C7.98267 18 7.72266 17.9048 7.51781 17.729L4.89281 15.479C4.42125 15.0747 4.36688 14.3643 4.77122 13.8928C5.17477 13.4212 5.88544 13.3668 6.35747 13.7712L8.09091 15.2566L11.4903 10.931C11.8741 10.4416 12.5825 10.3582 13.07 10.7406C13.5609 11.1234 13.6453 11.8312 13.2609 12.3187Z" fill="#317ECE"/>
</svg>
