<svg width="24" height="24" viewBox="0 0 24 24" fill="none" xmlns="http://www.w3.org/2000/svg">
<path d="M23.4141 15.5625C23.4141 15.2972 23.2683 15.0408 23.0296 14.903L20.8448 13.6416C20.9438 13.1062 21.0001 12.5203 21.0001 12C21.0001 11.4797 20.9419 10.8914 20.8435 10.3584L23.0284 9.09703C23.267 8.95917 23.4129 8.70277 23.4129 8.4375C23.4129 7.77656 21.4451 3.795 20.4194 3.795C20.2867 3.795 20.1528 3.82906 20.0329 3.89827L17.8429 5.16295C17.011 4.45219 16.0501 3.89531 15.0001 3.52313V0.9975C15.0001 0.644859 14.7581 0.328125 14.4127 0.255938C13.6313 0.0926719 12.8298 0 12.0001 0C11.1704 0 10.3665 0.0926719 9.58695 0.255984C9.24383 0.328312 9.00008 0.645 9.00008 0.9975V3.52313C7.95008 3.89531 6.98914 4.45219 6.15945 5.16094L3.96711 3.89813C3.84758 3.82875 3.71351 3.79453 3.58086 3.79453C2.65648 3.79453 0.587421 7.63594 0.587421 8.43703C0.587421 8.70234 0.733296 8.95875 0.971936 9.09656L3.15678 10.358C3.0582 10.8938 3.00008 11.4375 3.00008 12C3.00008 12.5625 3.0583 13.1086 3.15664 13.6416L0.971796 14.903C0.733108 15.0408 0.58728 15.2972 0.58728 15.5625C0.58728 16.2234 2.55509 20.205 3.58072 20.205C3.71347 20.205 3.84734 20.1709 3.96725 20.1017L6.15725 18.837C6.98914 19.5469 7.95008 20.1047 9.00008 20.475V23.0006C9.00008 23.3533 9.24205 23.67 9.58742 23.7422C10.3688 23.9062 11.1704 24 11.9579 24C12.7454 24 13.5915 23.9073 14.371 23.744C14.7563 23.6297 15.0001 23.3531 15.0001 23.0016V20.4759C16.051 20.1038 17.0124 19.5469 17.843 18.8367L20.033 20.1014C20.1529 20.1706 20.2869 20.2047 20.4196 20.2047C21.3423 20.2031 23.4141 16.3641 23.4141 15.5625ZM12.0001 15.75C9.93242 15.75 8.25008 14.0677 8.25008 12C8.25008 9.93234 9.93289 8.25 12.0001 8.25C14.0673 8.25 15.7501 9.93234 15.7501 12C15.7501 14.0677 14.0673 15.75 12.0001 15.75Z" fill="#317ECE"/>
</svg>
