<svg width="16" height="17" viewBox="0 0 16 17" fill="none" xmlns="http://www.w3.org/2000/svg">
<path d="M6.44908 1.4998C6.57408 1.2044 6.78849 0.95142 7.06483 0.773292C7.34117 0.595163 7.66684 0.5 8.00011 0.5C8.33339 0.5 8.65906 0.595163 8.9354 0.773292C9.21174 0.95142 9.42615 1.2044 9.55115 1.4998C10.7883 1.82511 11.8795 2.52973 12.6572 3.50545C13.4349 4.48117 13.8562 5.67403 13.8562 6.90083V10.658L15.3889 12.8562C15.4729 12.9767 15.5212 13.1167 15.5285 13.2613C15.5359 13.406 15.502 13.5498 15.4306 13.6775C15.3591 13.8052 15.2528 13.912 15.1228 13.9864C14.9929 14.0608 14.8443 14.1001 14.6928 14.1001H10.8989C10.7982 14.7665 10.4497 15.3759 9.91732 15.8166C9.38495 16.2574 8.70432 16.5 8.00011 16.5C7.29591 16.5 6.61528 16.2574 6.08291 15.8166C5.55053 15.3759 5.20207 14.7665 5.10134 14.1001H1.30742C1.15596 14.1001 1.00733 14.0608 0.877402 13.9864C0.74747 13.912 0.641104 13.8052 0.569651 13.6775C0.498198 13.5498 0.46434 13.406 0.471688 13.2613C0.479037 13.1167 0.527316 12.9767 0.611375 12.8562L2.144 10.658V6.90083C2.144 4.3219 3.96776 2.14933 6.44908 1.4998ZM6.81718 14.1001C6.90358 14.3342 7.06379 14.5369 7.27573 14.6803C7.48767 14.8236 7.74091 14.9006 8.00053 14.9006C8.26016 14.9006 8.51339 14.8236 8.72533 14.6803C8.93727 14.5369 9.09748 14.3342 9.18389 14.1001H6.81718ZM8.00011 2.90125C6.89073 2.90125 5.82678 3.32263 5.04233 4.0727C4.25788 4.82277 3.81718 5.84007 3.81718 6.90083V10.9004C3.81722 11.0584 3.76831 11.2129 3.67663 11.3444L2.871 12.5002H13.1284L12.3228 11.3444C12.2314 11.2128 12.1828 11.0583 12.1831 10.9004V6.90083C12.1831 5.84007 11.7424 4.82277 10.9579 4.0727C10.1734 3.32263 9.1095 2.90125 8.00011 2.90125Z" fill="#317ECE"/>
</svg>
