<svg width="21" height="25" viewBox="0 0 21 25" fill="none" xmlns="http://www.w3.org/2000/svg">
<path d="M18.75 10.75H1.45781C0.671719 10.75 0 11.4203 0 12.2078C0 12.9953 0.671719 13.75 1.45781 13.75H18.7078C19.5797 13.75 20.25 13.0797 20.25 12.25C20.25 11.4203 19.5797 10.75 18.75 10.75ZM7.5 18.25H1.45781C0.671719 18.25 0 18.9203 0 19.7078C0 20.4953 0.671719 21.25 1.45781 21.25H7.5C8.32969 21.25 9 20.5797 9 19.75C9 18.9203 8.32969 18.25 7.5 18.25ZM12 3.25H1.45781C0.671719 3.25 0 3.92172 0 4.70781C0 5.49391 0.671719 6.25 1.45781 6.25H11.9578C12.8297 6.25 13.5 5.57969 13.5 4.75C13.5 3.92031 12.8297 3.25 12 3.25Z" fill="#317ECE"/>
</svg>
