<svg width="20" height="22" viewBox="0 0 20 22" fill="none" xmlns="http://www.w3.org/2000/svg">
<path d="M2.36801 6.32031C1.57644 6.32031 0.924561 6.97219 0.924561 7.77928V19.777C0.924561 20.5686 1.57644 21.2204 2.36801 21.2204C3.1751 21.2204 3.82698 20.5686 3.82698 19.777V7.77928C3.82698 6.97219 3.1751 6.32031 2.36801 6.32031Z" fill="#317ECE"/>
<path d="M10.5166 0.592773C9.725 0.592773 9.07312 1.24465 9.07312 2.05174V19.7767C9.07312 20.5683 9.725 21.2201 10.5166 21.2201C11.3237 21.2201 11.9755 20.5683 11.9755 19.7767V2.05174C11.9755 1.24465 11.3237 0.592773 10.5166 0.592773Z" fill="#317ECE"/>
<path d="M18.5566 12.6523C17.7495 12.6523 17.0976 13.3042 17.0976 14.1113V19.7765C17.0976 20.568 17.7495 21.2199 18.541 21.2199C19.3481 21.2199 20 20.568 20 19.7765V14.1113C20 13.3042 19.3481 12.6523 18.5566 12.6523Z" fill="#317ECE"/>
</svg>
