<svg width="17" height="20" viewBox="0 0 17 20" fill="none" xmlns="http://www.w3.org/2000/svg">
<path d="M14.5714 2.5H13.3571V0.589844C13.3571 0.279805 13.0839 0 12.75 0C12.4161 0 12.1429 0.279805 12.1429 0.589844V2.5H4.85714V0.589844C4.85714 0.279805 4.58393 0 4.25 0C3.91607 0 3.64286 0.279805 3.64286 0.589844V2.5H2.42857C1.08717 2.5 0 3.61914 0 5V17.5C0 18.8809 1.08717 20 2.42857 20H14.5714C15.9128 20 17 18.8809 17 17.5V5C17 3.61914 15.9109 2.5 14.5714 2.5ZM2.42857 3.75H14.5714C15.2419 3.75 15.7857 4.30977 15.7857 5V6.25H1.21429V5C1.21429 4.30859 1.75806 3.75 2.42857 3.75ZM14.5714 18.75H2.42857C1.75806 18.75 1.21429 18.1902 1.21429 17.5V7.5H15.7857V17.5C15.7857 18.1914 15.2431 18.75 14.5714 18.75Z" fill="#317ECE"/>
</svg>
