<svg width="15" height="14" viewBox="0 0 15 14" fill="none" xmlns="http://www.w3.org/2000/svg">
<path d="M7.86828 1.16724C6.71455 1.16724 5.58674 1.50936 4.62745 2.15033C3.66817 2.79131 2.92049 3.70235 2.47898 4.76825C2.03747 5.83415 1.92195 7.00704 2.14703 8.1386C2.37211 9.27015 2.92768 10.3096 3.74349 11.1254C4.5593 11.9412 5.5987 12.4967 6.73025 12.7218C7.86181 12.9469 9.0347 12.8314 10.1006 12.3899C11.1665 11.9484 12.0775 11.2007 12.7185 10.2414C13.3595 9.28211 13.7016 8.15429 13.7016 7.00057C13.7016 6.23453 13.5507 5.47598 13.2576 4.76825C12.9644 4.06052 12.5347 3.41746 11.9931 2.87578C11.4514 2.33411 10.8083 1.90442 10.1006 1.61127C9.39287 1.31812 8.63432 1.16724 7.86828 1.16724ZM7.86828 11.6672C6.9453 11.6672 6.04305 11.3935 5.27562 10.8808C4.50819 10.368 3.91005 9.63915 3.55684 8.78643C3.20363 7.9337 3.11122 6.99539 3.29128 6.09015C3.47135 5.1849 3.9158 4.35338 4.56845 3.70074C5.22109 3.04809 6.05261 2.60364 6.95786 2.42357C7.8631 2.24351 8.80141 2.33592 9.65414 2.68913C10.5069 3.04234 11.2357 3.64048 11.7485 4.40791C12.2612 5.17534 12.5349 6.07759 12.5349 7.00057C12.5349 8.23825 12.0433 9.42523 11.1681 10.3004C10.2929 11.1756 9.10596 11.6672 7.86828 11.6672Z" fill="#878D96"/>
<path d="M10.2016 6.4161H8.45161V4.6661C8.45161 4.51139 8.39015 4.36301 8.28075 4.25362C8.17136 4.14422 8.02298 4.08276 7.86828 4.08276C7.71357 4.08276 7.56519 4.14422 7.4558 4.25362C7.3464 4.36301 7.28494 4.51139 7.28494 4.6661V6.99943C7.28494 7.15414 7.3464 7.30251 7.4558 7.41191C7.56519 7.52131 7.71357 7.58277 7.86828 7.58277H10.2016C10.3563 7.58277 10.5047 7.52131 10.6141 7.41191C10.7235 7.30251 10.7849 7.15414 10.7849 6.99943C10.7849 6.84472 10.7235 6.69635 10.6141 6.58695C10.5047 6.47756 10.3563 6.4161 10.2016 6.4161Z" fill="#878D96"/>
</svg>
