<svg width="25" height="26" viewBox="0 0 25 26" fill="none" xmlns="http://www.w3.org/2000/svg">
<circle cx="12.5" cy="13" r="12.5" fill="white"/>
<g clip-path="url(#clip0_1_6206)">
<path d="M16.4218 15.6965C16.7473 16.0162 16.7473 16.5342 16.4218 16.8539C16.2603 17.0137 16.0468 17.093 15.8333 17.093C15.6197 17.093 15.4067 17.0131 15.2442 16.8532L12.4999 14.1594L9.75591 16.8526C9.59315 17.0137 9.37987 17.093 9.16659 17.093C8.9533 17.093 8.74028 17.0137 8.57739 16.8526C8.25187 16.5329 8.25187 16.0149 8.57739 15.6952L11.3222 12.9995L8.57739 10.305C8.25187 9.98525 8.25187 9.46733 8.57739 9.14762C8.90291 8.82791 9.43026 8.82791 9.75578 9.14762L12.4999 11.8447L15.2447 9.1489C15.5702 8.82919 16.0976 8.82919 16.4231 9.1489C16.7486 9.4686 16.7486 9.98653 16.4231 10.3062L13.6783 13.002L16.4218 15.6965Z" fill="#317ECE"/>
</g>
<defs>
<clipPath id="clip0_1_6206">
<rect width="8.33333" height="13.0952" fill="white" transform="translate(8.33325 6.45312)"/>
</clipPath>
</defs>
</svg>
