<svg width="21" height="18" viewBox="0 0 21 18" fill="none" xmlns="http://www.w3.org/2000/svg">
<path d="M17.64 8.02383C17.7745 7.66855 17.85 7.28008 17.85 6.875C17.85 5.11523 16.4391 3.6875 14.7 3.6875C14.0539 3.6875 13.4502 3.88672 12.9508 4.22539C12.0422 2.63164 10.3458 1.5625 8.4 1.5625C5.49937 1.5625 3.15 3.93984 3.15 6.875C3.15 6.96475 3.15359 7.05579 3.15666 7.14504C1.31906 7.79805 0 9.57109 0 11.6562C0 14.2959 2.11641 16.4375 4.725 16.4375H16.8C19.1195 16.4375 21 14.535 21 12.1875C21 10.1322 19.5562 8.41563 17.64 8.02383ZM7.05469 8.9668L9.94219 6.04492C10.0275 5.96191 10.2211 5.8125 10.5 5.8125C10.7789 5.8125 10.9725 5.96082 11.0568 6.04595L13.9443 8.96783C14.2519 9.27911 14.2519 9.7833 13.9443 10.0947C13.6367 10.4062 13.1385 10.406 12.8307 10.0947L11.2875 8.53184V13.5156C11.2875 13.9556 10.9348 14.3125 10.5 14.3125C10.0652 14.3125 9.7125 13.9556 9.7125 13.5156V8.53184L8.14078 10.0658C7.83316 10.3771 7.33491 10.3771 7.02712 10.0658C6.71934 9.75454 6.74953 9.27891 7.05469 8.9668Z" fill="#317ECE"/>
</svg>
