<svg width="22" height="22" viewBox="0 0 22 22" fill="none" xmlns="http://www.w3.org/2000/svg">
<path d="M21.0544 6.44375L18.4023 1.52656C18.1991 0.910156 17.63 0.5 16.9761 0.5H11.2892V6.5H21.0167C21.0308 6.47656 21.0402 6.46719 21.0544 6.44375ZM0 8V19.25C0 20.4922 1.01085 21.5 2.25784 21.5H18.8153C20.0623 21.5 21.0732 20.4927 21.0732 19.25V8H0ZM12.992 16.4562C12.8471 17.2911 12.1999 17.8334 11.2897 18.0134V18.5C11.2897 18.9146 10.9523 19.25 10.5361 19.25C10.1199 19.25 9.78397 18.9125 9.78397 18.5V17.9975C9.415 17.9209 9.045 17.7987 8.71385 17.6795L8.54701 17.6202C8.15645 17.4828 7.94948 17.0516 8.09059 16.6625C8.2295 16.2714 8.65882 16.0686 9.05112 16.2062L9.2253 16.2685C9.54878 16.3859 9.91568 16.5172 10.165 16.5594C10.7647 16.6553 11.4063 16.5601 11.4694 16.199C11.5142 15.9397 11.4841 15.8108 10.2892 15.4696L10.0532 15.4015C9.36364 15.2001 7.74834 14.727 8.03998 13.0446C8.18561 12.2051 8.8274 11.6496 9.74512 11.472V11C9.74512 10.5854 10.0817 10.25 10.4977 10.25C10.9137 10.25 11.2503 10.5854 11.2503 11V11.5091C11.511 11.5639 11.7809 11.6303 12.0444 11.7209C12.4375 11.8565 12.6464 12.2834 12.5103 12.6744C12.3751 13.0662 11.943 13.2711 11.5536 13.1387C11.311 13.0552 11.0554 12.9754 10.8235 12.9395C10.2195 12.8428 9.58594 12.9395 9.52338 13.3006C9.52526 13.5125 9.45941 13.6672 10.5178 13.9625L10.7441 14.0277C11.6937 14.3 13.2883 14.7547 12.992 16.4562ZM9.78397 6.5V0.5H4.09845C3.44556 0.5 2.87545 0.910156 2.66943 1.52562L0.0176394 6.44375C0.0352787 6.46719 0.0411585 6.47656 0.0587979 6.5H9.78397Z" fill="#317ECE"/>
</svg>
