<svg width="18" height="16" viewBox="0 0 18 16" fill="none" xmlns="http://www.w3.org/2000/svg">
<path d="M12.375 10.25C12.375 10.5604 12.6271 10.8125 12.9375 10.8125H16.3125C16.6229 10.8125 16.875 10.5604 16.875 10.25C16.875 9.93964 16.6229 9.6875 16.3125 9.6875H12.9375C12.6281 9.6875 12.375 9.94062 12.375 10.25ZM6.75 6.875C6.75 7.18536 7.00214 7.4375 7.3125 7.4375H12.9375C13.2469 7.4375 13.5 7.18438 13.5 6.875C13.5 6.56562 13.2479 6.3125 12.9375 6.3125H7.3125C7.00312 6.3125 6.75 6.56562 6.75 6.875ZM17.4375 14.75H2.8125C1.88191 14.75 1.125 13.9941 1.125 13.0625V0.6875C1.125 0.37707 0.87293 0.125 0.5625 0.125C0.25207 0.125 0 0.37707 0 0.6875V13.0625C0 14.6129 1.26141 15.875 2.8125 15.875H17.4375C17.7479 15.875 18 15.6229 18 15.3125C18 15.0021 17.7469 14.75 17.4375 14.75ZM5.0625 4.0625H9.5625C9.87188 4.0625 10.125 3.80938 10.125 3.5C10.125 3.19062 9.87286 2.9375 9.5625 2.9375H5.0625C4.75312 2.9375 4.5 3.19062 4.5 3.5C4.5 3.80938 4.75312 4.0625 5.0625 4.0625Z" fill="#317ECE"/>
</svg>
