<svg width="19" height="18" viewBox="0 0 19 18" fill="none" xmlns="http://www.w3.org/2000/svg">
<path fill-rule="evenodd" clip-rule="evenodd" d="M3.6 7.2V4.2C3.6 3.64845 3.70864 3.1023 3.91971 2.59273C4.13078 2.08316 4.44015 1.62016 4.83015 1.23015C5.22016 0.840146 5.68316 0.530776 6.19273 0.319706C6.7023 0.108636 7.24845 0 7.8 0C8.35155 0 8.8977 0.108636 9.40727 0.319706C9.91684 0.530776 10.3798 0.840146 10.7698 1.23015C11.1599 1.62016 11.4692 2.08316 11.6803 2.59273C11.8914 3.1023 12 3.64845 12 4.2V7.2H13.8C14.2774 7.2 14.7352 7.38964 15.0728 7.72721C15.4104 8.06477 15.6 8.52261 15.6 9V9.66C16.2782 9.79771 16.8879 10.1656 17.3258 10.7014C17.7638 11.2373 18.003 11.908 18.003 12.6C18.003 13.292 17.7638 13.9627 17.3258 14.4986C16.8879 15.0344 16.2782 15.4023 15.6 15.54V16.2C15.6 16.6774 15.4104 17.1352 15.0728 17.4728C14.7352 17.8104 14.2774 18 13.8 18H1.8C1.32261 18 0.864773 17.8104 0.527208 17.4728C0.189642 17.1352 0 16.6774 0 16.2L0 9C0 8.52261 0.189642 8.06477 0.527208 7.72721C0.864773 7.38964 1.32261 7.2 1.8 7.2H3.6ZM4.8 4.2C4.8 3.40435 5.11607 2.64129 5.67868 2.07868C6.24129 1.51607 7.00435 1.2 7.8 1.2C8.59565 1.2 9.35871 1.51607 9.92132 2.07868C10.4839 2.64129 10.8 3.40435 10.8 4.2V7.2H4.8V4.2ZM10.2 10.8C9.72261 10.8 9.26477 10.9896 8.92721 11.3272C8.58964 11.6648 8.4 12.1226 8.4 12.6C8.4 13.0774 8.58964 13.5352 8.92721 13.8728C9.26477 14.2104 9.72261 14.4 10.2 14.4H15C15.4774 14.4 15.9352 14.2104 16.2728 13.8728C16.6104 13.5352 16.8 13.0774 16.8 12.6C16.8 12.1226 16.6104 11.6648 16.2728 11.3272C15.9352 10.9896 15.4774 10.8 15 10.8H10.2Z" fill="black" fill-opacity="0.5"/>
</svg>
