<svg width="24" height="22" viewBox="0 0 24 22" fill="none" xmlns="http://www.w3.org/2000/svg">
<path d="M5.20781 13.25C5.83594 13.8359 6.7875 13.8359 7.36875 13.25L9.75 10.8734L12.4397 13.5631C12.7312 13.8547 13.1156 14 13.5 14C13.8844 14 14.2678 13.8535 14.5603 13.5605L21.7509 6.36992C22.3364 5.78445 22.3364 4.83477 21.751 4.24883C21.165 3.66289 20.2154 3.66289 19.6299 4.24874L13.5 10.3813L10.8094 7.69062C10.2234 7.10469 9.27422 7.10469 8.68828 7.69062L5.20781 11.1312C4.66406 11.7125 4.66406 12.6641 5.20781 13.25ZM22.5 18.5H3V1.95781C3 1.17172 2.32828 0.5 1.5 0.5C0.671719 0.5 0 1.17172 0 1.95781V20C0 20.825 0.675 21.5 1.5 21.5H22.5C23.3297 21.5 24 20.8297 24 20C24 19.1703 23.3297 18.5 22.5 18.5Z" fill="#317ECE"/>
</svg>
