<svg width="24" height="25" viewBox="0 0 24 25" fill="none" xmlns="http://www.w3.org/2000/svg">
<path d="M2.85902 3.62722L15.429 1.83222C15.5 1.82204 15.5723 1.82723 15.641 1.84744C15.7098 1.86765 15.7734 1.9024 15.8275 1.94935C15.8817 1.99629 15.9251 2.05433 15.9549 2.11952C15.9846 2.18472 16 2.25555 16 2.32722V23.1732C16 23.2448 15.9846 23.3155 15.9549 23.3806C15.9252 23.4457 15.8819 23.5037 15.8279 23.5507C15.7738 23.5976 15.7103 23.6324 15.6417 23.6526C15.5731 23.6729 15.5009 23.6782 15.43 23.6682L2.85802 21.8732C2.61964 21.8393 2.40152 21.7204 2.24371 21.5386C2.08591 21.3567 1.99903 21.124 1.99902 20.8832V4.61722C1.99903 4.37643 2.08591 4.14373 2.24371 3.96186C2.40152 3.77999 2.61964 3.66117 2.85802 3.62722H2.85902ZM17 3.75022H21C21.2652 3.75022 21.5196 3.85557 21.7071 4.04311C21.8947 4.23064 22 4.485 22 4.75022V20.7502C22 21.0154 21.8947 21.2698 21.7071 21.4573C21.5196 21.6449 21.2652 21.7502 21 21.7502H17V3.75022ZM10.2 12.7502L13 8.75022H10.6L9.00002 11.0362L7.40002 8.75022H5.00002L7.80002 12.7502L5.00002 16.7502H7.40002L9.00002 14.4642L10.6 16.7502H13L10.2 12.7502Z" fill="#317ECE"/>
</svg>
