<svg width="19" height="24" viewBox="0 0 19 24" fill="none" xmlns="http://www.w3.org/2000/svg">
<path d="M16.25 0.000976562H2.75C1.50734 0.000976562 0.5 1.00832 0.5 2.25098V22.501C0.5 23.3293 1.17172 24.001 2 24.001L7.25 24.0006V20.2511C7.25 19.0084 8.25734 18.0006 9.5 18.0006C10.7427 18.0006 11.75 19.0084 11.75 20.2511V24.0006L17 24.001C17.8283 24.001 18.5 23.3293 18.5 22.501V2.25098C18.5 1.00811 17.4922 0.000976562 16.25 0.000976562ZM8 14.2503C8 14.6645 7.66419 15.0003 7.25 15.0003H5.75C5.33581 15.0003 5 14.6645 5 14.2503V12.7503C5 12.336 5.33581 12.0003 5.75 12.0003H7.25C7.66419 12.0003 8 12.3363 8 12.7503V14.2503ZM8 9.7503C8 10.1645 7.66419 10.5003 7.25 10.5003H5.75C5.33581 10.5003 5 10.1645 5 9.7503V8.2503C5 7.83602 5.33581 7.5003 5.75 7.5003H7.25C7.66419 7.5003 8 7.83625 8 8.2503V9.7503ZM8 5.2503C8 5.66448 7.66419 5.95811 7.25 5.95811H5.75C5.33581 5.95811 5 5.62253 5 5.2503V3.7503C5 3.33602 5.33581 3.0003 5.75 3.0003H7.25C7.66419 3.0003 8 3.33602 8 3.7503V5.2503ZM14 14.2503C14 14.6645 13.6642 15.0003 13.25 15.0003H11.75C11.3358 15.0003 11 14.6645 11 14.2503V12.7503C11 12.336 11.3358 12.0003 11.75 12.0003H13.25C13.6642 12.0003 14 12.3363 14 12.7503V14.2503ZM14 9.7503C14 10.1645 13.6642 10.5003 13.25 10.5003H11.75C11.3358 10.5003 11 10.1645 11 9.7503V8.2503C11 7.83602 11.3358 7.5003 11.75 7.5003H13.25C13.6642 7.5003 14 7.83625 14 8.2503V9.7503ZM14 5.2503C14 5.66448 13.6642 5.95811 13.25 5.95811H11.75C11.3358 5.95811 11 5.62253 11 5.2503V3.7503C11 3.33602 11.3358 3.0003 11.75 3.0003H13.25C13.6642 3.0003 14 3.33602 14 3.7503V5.2503Z" fill="#317ECE"/>
</svg>
