<svg width="19" height="18" viewBox="0 0 19 18" fill="none" xmlns="http://www.w3.org/2000/svg">
<path d="M9.125 7.875H17C17.2984 7.875 17.5845 7.75647 17.7955 7.5455C18.0065 7.33452 18.125 7.04837 18.125 6.75V2.25C18.125 1.95163 18.0065 1.66548 17.7955 1.4545C17.5845 1.24353 17.2984 1.125 17 1.125H13.0625L11.9375 0H9.125C8.82663 0 8.54048 0.118526 8.3295 0.329505C8.11853 0.540483 8 0.826631 8 1.125V3.375H1.25V0.28125C1.25 0.206658 1.22037 0.135121 1.16762 0.0823762C1.11488 0.0296316 1.04334 0 0.96875 0L0.40625 0C0.331658 0 0.260121 0.0296316 0.207376 0.0823762C0.154632 0.135121 0.125 0.206658 0.125 0.28125V14.0625C0.125 14.2117 0.184263 14.3548 0.289752 14.4602C0.395242 14.5657 0.538316 14.625 0.6875 14.625H8V16.875C8 17.1734 8.11853 17.4595 8.3295 17.6705C8.54048 17.8815 8.82663 18 9.125 18H17C17.2984 18 17.5845 17.8815 17.7955 17.6705C18.0065 17.4595 18.125 17.1734 18.125 16.875V12.375C18.125 12.0766 18.0065 11.7905 17.7955 11.5795C17.5845 11.3685 17.2984 11.25 17 11.25H13.0625L11.9375 10.125H9.125C8.82663 10.125 8.54048 10.2435 8.3295 10.4545C8.11853 10.6655 8 10.9516 8 11.25V13.5H1.25V4.5H8V6.75C8 7.04837 8.11853 7.33452 8.3295 7.5455C8.54048 7.75647 8.82663 7.875 9.125 7.875ZM9.125 11.25H11.4713L12.5963 12.375H17V16.875H9.125V11.25ZM9.125 1.125H11.4713L12.5963 2.25H17V6.75H9.125V1.125Z" fill="#317ECE"/>
</svg>
