<svg width="10" height="16" viewBox="0 0 10 16" fill="none" xmlns="http://www.w3.org/2000/svg">
<path d="M3.24538 11.4701C3.26072 10.6165 3.3643 9.94217 3.5561 9.44721C3.74791 8.95225 4.1392 8.4035 4.72996 7.80094L6.23757 6.34835C6.88204 5.66689 7.20427 4.93522 7.20427 4.15333C7.20427 3.40013 6.99329 2.81193 6.57131 2.3887C6.14934 1.95831 5.53555 1.74311 4.72996 1.74311C3.94739 1.74311 3.31826 1.93679 2.84258 2.32414C2.3669 2.7115 2.12906 3.23156 2.12906 3.88433H0C0.0153446 2.72226 0.456501 1.78615 1.32347 1.07599C2.19811 0.358664 3.33361 0 4.72996 0C6.18002 0 7.30785 0.365837 8.11344 1.09751C8.9267 1.82201 9.33333 2.8191 9.33333 4.08877C9.33333 5.34409 8.71188 6.58148 7.46897 7.80094L6.21455 8.96301C5.65447 9.54405 5.37443 10.3797 5.37443 11.4701H3.24538ZM3.15331 14.881C3.15331 14.5582 3.25688 14.2892 3.46404 14.074C3.67886 13.8516 3.99342 13.7404 4.40773 13.7404C4.82203 13.7404 5.13659 13.8516 5.35142 14.074C5.56624 14.2892 5.67365 14.5582 5.67365 14.881C5.67365 15.2038 5.56624 15.4728 5.35142 15.688C5.13659 15.896 4.82203 16 4.40773 16C3.99342 16 3.67886 15.896 3.46404 15.688C3.25688 15.4728 3.15331 15.2038 3.15331 14.881Z" fill="#317ECE"/>
</svg>
