<svg width="27" height="22" viewBox="0 0 27 22" fill="none" xmlns="http://www.w3.org/2000/svg">
<path d="M24 0.5H3C1.34297 0.5 0 1.84297 0 3.5V18.5C0 20.157 1.34297 21.5 3 21.5H24C25.657 21.5 27 20.157 27 18.5V3.5C27 1.84297 25.6547 0.5 24 0.5ZM8.25 5C9.90703 5 11.25 6.34297 11.25 8C11.25 9.65703 9.90703 11 8.25 11C6.59297 11 5.25 9.65703 5.25 8C5.25 6.34297 6.59531 5 8.25 5ZM12.75 17H3.75C3.33562 17 3 16.6625 3 16.25C3 14.1781 4.67906 12.5 6.75 12.5H9.75C11.8209 12.5 13.5 14.1791 13.5 16.25C13.5 16.6625 13.1625 17 12.75 17ZM23.25 14H17.25C16.8375 14 16.5 13.6625 16.5 13.25C16.5 12.8375 16.8375 12.5 17.25 12.5H23.25C23.6625 12.5 24 12.8375 24 13.25C24 13.6625 23.6625 14 23.25 14ZM23.25 11H17.25C16.8375 11 16.5 10.6625 16.5 10.25C16.5 9.8375 16.8375 9.5 17.25 9.5H23.25C23.6625 9.5 24 9.8375 24 10.25C24 10.6625 23.6625 11 23.25 11ZM23.25 8H17.25C16.8375 8 16.5 7.6625 16.5 7.25C16.5 6.8375 16.8375 6.5 17.25 6.5H23.25C23.6625 6.5 24 6.8375 24 7.25C24 7.6625 23.6625 8 23.25 8Z" fill="#317ECE"/>
</svg>
