<svg width="43" height="16" viewBox="0 0 43 16" fill="none" xmlns="http://www.w3.org/2000/svg">
<path d="M5.1 10.9C5.91333 11.74 6.89333 12.16 8.04 12.16C9.18667 12.16 10.16 11.74 10.96 10.9C11.76 10.06 12.16 9.06 12.16 7.9C12.16 6.74 11.76 5.74 10.96 4.9C10.16 4.06 9.18667 3.64 8.04 3.64C6.89333 3.64 5.91333 4.06 5.1 4.9C4.3 5.74 3.9 6.74 3.9 7.9C3.9 9.06 4.3 10.06 5.1 10.9ZM13.22 13.08C11.7933 14.52 10.0667 15.24 8.04 15.24C6.01333 15.24 4.28 14.5267 2.84 13.1C1.41333 11.66 0.7 9.92667 0.7 7.9C0.7 5.87333 1.41333 4.14667 2.84 2.72C4.28 1.28 6.01333 0.559999 8.04 0.559999C10.0667 0.559999 11.7933 1.28 13.22 2.72C14.66 4.16 15.38 5.88667 15.38 7.9C15.38 9.91333 14.66 11.64 13.22 13.08ZM30.4142 15H27.6742L20.7542 6.22V15H17.5742V0.799999H20.3142L27.2142 9.58V0.799999H30.4142V15ZM33.4141 15V0.799999H42.4141V3.84H36.5941V6.38H41.2141V9.42H36.5941V11.96H42.4141V15H33.4141Z" fill="#317ECE"/>
</svg>
