<svg width="20" height="21" viewBox="0 0 20 21" fill="none" xmlns="http://www.w3.org/2000/svg">
<path d="M12.1429 9.06429H18.2143C19.1452 9.06429 19.9 9.81907 19.9 10.75C19.9 11.6809 19.1452 12.4357 18.2143 12.4357H12.1429C11.8904 12.4357 11.6857 12.6404 11.6857 12.8929V18.9643C11.6857 19.8952 10.9309 20.65 10 20.65C9.06907 20.65 8.31429 19.8952 8.31429 18.9643V12.8929C8.31429 12.6404 8.1096 12.4357 7.85714 12.4357H1.78571C0.854789 12.4357 0.1 11.6809 0.1 10.75C0.1 9.81907 0.854789 9.06429 1.78571 9.06429H7.85714C8.1096 9.06429 8.31429 8.8596 8.31429 8.60714V2.53571C8.31429 1.60479 9.06907 0.85 10 0.85C10.9309 0.85 11.6857 1.60479 11.6857 2.53571V8.60714C11.6857 8.8596 11.8904 9.06429 12.1429 9.06429Z" fill="white" stroke="#317ECE" stroke-width="0.2"/>
</svg>
