<svg width="14" height="18" viewBox="0 0 14 18" fill="none" xmlns="http://www.w3.org/2000/svg">
<path d="M6.375 10.3281H4.26562C4.22418 10.3281 4.18444 10.3446 4.15514 10.3739C4.12584 10.4032 4.10938 10.4429 4.10938 10.4844V11.4219C4.10938 11.4633 4.12584 11.5031 4.15514 11.5324C4.18444 11.5617 4.22418 11.5781 4.26562 11.5781H6.375V13.6875C6.375 13.7289 6.39146 13.7687 6.42076 13.798C6.45007 13.8273 6.48981 13.8438 6.53125 13.8438H7.46875C7.51019 13.8438 7.54993 13.8273 7.57924 13.798C7.60854 13.7687 7.625 13.7289 7.625 13.6875V11.5781H9.73438C9.77582 11.5781 9.81556 11.5617 9.84486 11.5324C9.87416 11.5031 9.89062 11.4633 9.89062 11.4219V10.4844C9.89062 10.4429 9.87416 10.4032 9.84486 10.3739C9.81556 10.3446 9.77582 10.3281 9.73438 10.3281H7.625V8.21875C7.625 8.17731 7.60854 8.13757 7.57924 8.10826C7.54993 8.07896 7.51019 8.0625 7.46875 8.0625H6.53125C6.48981 8.0625 6.45007 8.07896 6.42076 8.10826C6.39146 8.13757 6.375 8.17731 6.375 8.21875V10.3281ZM13.6914 4.63867C13.8086 4.75586 13.875 4.91406 13.875 5.08008V17.125C13.875 17.4707 13.5957 17.75 13.25 17.75H0.75C0.404297 17.75 0.125 17.4707 0.125 17.125V0.875C0.125 0.529297 0.404297 0.25 0.75 0.25H9.04492C9.21094 0.25 9.37109 0.316406 9.48828 0.433594L13.6914 4.63867ZM12.4336 5.36719L8.75781 1.69141V5.36719H12.4336Z" fill="#317ECE"/>
</svg>
