<svg width="15" height="20" viewBox="0 0 15 20" fill="none" xmlns="http://www.w3.org/2000/svg">
<path d="M8.75 5V0H1.875C0.839453 0 0 0.839453 0 1.875V18.125C0 19.1602 0.839453 20 1.875 20H13.125C14.1605 20 15 19.1605 15 18.125V6.25H10.0352C9.30859 6.25 8.75 5.69141 8.75 5ZM10.9961 9.375H11.909C12.2104 9.375 12.4336 9.65547 12.3656 9.94922L10.707 17.1367C10.6602 17.3477 10.4688 17.5 10.2539 17.5H9.11094C8.89898 17.5 8.71328 17.3578 8.6582 17.153L7.5 12.8555L6.34336 17.1172C6.25391 17.3594 6.10156 17.5 5.89062 17.5H4.74609C4.52781 17.5 4.33828 17.3493 4.28945 17.1365L2.63086 9.94902C2.56484 9.65625 2.78789 9.375 3.08906 9.375H4.00195C4.22023 9.375 4.40977 9.52574 4.45859 9.73832L5.38281 13.75L6.46875 9.72266C6.52344 9.51562 6.71094 9.375 6.92187 9.375H8.07852C8.29047 9.375 8.47617 9.51723 8.53125 9.72199L9.61719 13.75L10.543 9.73828C10.5898 9.52734 10.7461 9.375 10.9961 9.375ZM10 0V5H15L10 0Z" fill="#317ECE"/>
</svg>
